<svg width="160" height="32" viewBox="0 0 160 32" fill="none" xmlns="http://www.w3.org/2000/svg">
<path d="M16 21.4697L11.16 24.3923C11.0178 24.4626 10.8858 24.491 10.764 24.4777C10.6431 24.4635 10.5253 24.4217 10.4107 24.3523C10.2951 24.2812 10.208 24.1808 10.1493 24.051C10.0907 23.9212 10.0853 23.7795 10.1333 23.6257L11.4213 18.1457L7.16133 14.4523C7.04133 14.3546 6.96221 14.2377 6.92399 14.1017C6.88577 13.9657 6.89421 13.8355 6.94933 13.711C7.00444 13.5866 7.07777 13.4843 7.16933 13.4043C7.26177 13.327 7.38621 13.2746 7.54266 13.247L13.164 12.7563L15.356 7.56701C15.4164 7.42034 15.5035 7.31457 15.6173 7.24968C15.7311 7.18479 15.8587 7.15234 16 7.15234C16.1413 7.15234 16.2693 7.18479 16.384 7.24968C16.4987 7.31457 16.5853 7.42034 16.644 7.56701L18.836 12.7563L24.456 13.247C24.6133 13.2737 24.7382 13.3266 24.8307 13.4057C24.9231 13.4839 24.9969 13.5857 25.052 13.711C25.1062 13.8355 25.1142 13.9657 25.076 14.1017C25.0378 14.2377 24.9587 14.3546 24.8387 14.4523L20.5787 18.1457L21.8667 23.6257C21.9164 23.7777 21.9115 23.919 21.852 24.0497C21.7924 24.1803 21.7049 24.2808 21.5893 24.351C21.4755 24.4221 21.3578 24.4643 21.236 24.4777C21.1151 24.491 20.9835 24.4626 20.8413 24.3923L16 21.4697Z" fill="#FCB017"/>
<path d="M48 21.4697L43.16 24.3923C43.0178 24.4626 42.8858 24.491 42.764 24.4777C42.6431 24.4635 42.5253 24.4217 42.4107 24.3523C42.2951 24.2812 42.208 24.1808 42.1493 24.051C42.0907 23.9212 42.0853 23.7795 42.1333 23.6257L43.4213 18.1457L39.1613 14.4523C39.0413 14.3546 38.9622 14.2377 38.924 14.1017C38.8858 13.9657 38.8942 13.8355 38.9493 13.711C39.0044 13.5866 39.0778 13.4843 39.1693 13.4043C39.2618 13.327 39.3862 13.2746 39.5427 13.247L45.164 12.7563L47.356 7.56701C47.4164 7.42034 47.5035 7.31457 47.6173 7.24968C47.7311 7.18479 47.8587 7.15234 48 7.15234C48.1413 7.15234 48.2693 7.18479 48.384 7.24968C48.4987 7.31457 48.5853 7.42034 48.644 7.56701L50.836 12.7563L56.456 13.247C56.6133 13.2737 56.7382 13.3266 56.8307 13.4057C56.9231 13.4839 56.9969 13.5857 57.052 13.711C57.1062 13.8355 57.1142 13.9657 57.076 14.1017C57.0378 14.2377 56.9587 14.3546 56.8387 14.4523L52.5787 18.1457L53.8667 23.6257C53.9164 23.7777 53.9115 23.919 53.852 24.0497C53.7924 24.1803 53.7049 24.2808 53.5893 24.351C53.4755 24.4221 53.3578 24.4643 53.236 24.4777C53.1151 24.491 52.9835 24.4626 52.8413 24.3923L48 21.4697Z" fill="#FCB017"/>
<path d="M80 21.4697L75.16 24.3923C75.0178 24.4626 74.8858 24.491 74.764 24.4777C74.6431 24.4635 74.5253 24.4217 74.4107 24.3523C74.2951 24.2812 74.208 24.1808 74.1493 24.051C74.0907 23.9212 74.0853 23.7795 74.1333 23.6257L75.4213 18.1457L71.1613 14.4523C71.0413 14.3546 70.9622 14.2377 70.924 14.1017C70.8858 13.9657 70.8942 13.8355 70.9493 13.711C71.0044 13.5866 71.0778 13.4843 71.1693 13.4043C71.2618 13.327 71.3862 13.2746 71.5427 13.247L77.164 12.7563L79.356 7.56701C79.4164 7.42034 79.5035 7.31457 79.6173 7.24968C79.7311 7.18479 79.8587 7.15234 80 7.15234C80.1413 7.15234 80.2693 7.18479 80.384 7.24968C80.4987 7.31457 80.5853 7.42034 80.644 7.56701L82.836 12.7563L88.456 13.247C88.6133 13.2737 88.7382 13.3266 88.8307 13.4057C88.9231 13.4839 88.9969 13.5857 89.052 13.711C89.1062 13.8355 89.1142 13.9657 89.076 14.1017C89.0378 14.2377 88.9587 14.3546 88.8387 14.4523L84.5787 18.1457L85.8667 23.6257C85.9164 23.7777 85.9115 23.919 85.852 24.0497C85.7924 24.1803 85.7049 24.2808 85.5893 24.351C85.4755 24.4221 85.3578 24.4643 85.236 24.4777C85.1151 24.491 84.9835 24.4626 84.8413 24.3923L80 21.4697Z" fill="#FCB017"/>
<path d="M112 21.4697L107.16 24.3923C107.018 24.4626 106.886 24.491 106.764 24.4777C106.643 24.4635 106.525 24.4217 106.411 24.3523C106.295 24.2812 106.208 24.1808 106.149 24.051C106.091 23.9212 106.085 23.7795 106.133 23.6257L107.421 18.1457L103.161 14.4523C103.041 14.3546 102.962 14.2377 102.924 14.1017C102.886 13.9657 102.894 13.8355 102.949 13.711C103.004 13.5866 103.078 13.4843 103.169 13.4043C103.262 13.327 103.386 13.2746 103.543 13.247L109.164 12.7563L111.356 7.56701C111.416 7.42034 111.504 7.31457 111.617 7.24968C111.731 7.18479 111.859 7.15234 112 7.15234C112.141 7.15234 112.269 7.18479 112.384 7.24968C112.499 7.31457 112.585 7.42034 112.644 7.56701L114.836 12.7563L120.456 13.247C120.613 13.2737 120.738 13.3266 120.831 13.4057C120.923 13.4839 120.997 13.5857 121.052 13.711C121.106 13.8355 121.114 13.9657 121.076 14.1017C121.038 14.2377 120.959 14.3546 120.839 14.4523L116.579 18.1457L117.867 23.6257C117.916 23.7777 117.912 23.919 117.852 24.0497C117.792 24.1803 117.705 24.2808 117.589 24.351C117.476 24.4221 117.358 24.4643 117.236 24.4777C117.115 24.491 116.984 24.4626 116.841 24.3923L112 21.4697Z" fill="#FCB017"/>
<path d="M144 21.4697L139.16 24.3923C139.018 24.4626 138.886 24.491 138.764 24.4777C138.643 24.4635 138.525 24.4217 138.411 24.3523C138.295 24.2812 138.208 24.1808 138.149 24.051C138.091 23.9212 138.085 23.7795 138.133 23.6257L139.421 18.1457L135.161 14.4523C135.041 14.3546 134.962 14.2377 134.924 14.1017C134.886 13.9657 134.894 13.8355 134.949 13.711C135.004 13.5866 135.078 13.4843 135.169 13.4043C135.262 13.327 135.386 13.2746 135.543 13.247L141.164 12.7563L143.356 7.56701C143.416 7.42034 143.504 7.31457 143.617 7.24968C143.731 7.18479 143.859 7.15234 144 7.15234C144.141 7.15234 144.269 7.18479 144.384 7.24968C144.499 7.31457 144.585 7.42034 144.644 7.56701L146.836 12.7563L152.456 13.247C152.613 13.2737 152.738 13.3266 152.831 13.4057C152.923 13.4839 152.997 13.5857 153.052 13.711C153.106 13.8355 153.114 13.9657 153.076 14.1017C153.038 14.2377 152.959 14.3546 152.839 14.4523L148.579 18.1457L149.867 23.6257C149.916 23.7777 149.912 23.919 149.852 24.0497C149.792 24.1803 149.705 24.2808 149.589 24.351C149.476 24.4221 149.358 24.4643 149.236 24.4777C149.115 24.491 148.984 24.4626 148.841 24.3923L144 21.4697Z" fill="#FCB017"/>
</svg>
