<svg width="32" height="32" viewBox="0 0 32 32" fill="none" xmlns="http://www.w3.org/2000/svg">
<path d="M28.75 16C28.75 13.4783 28.0022 11.0132 26.6013 8.91649C25.2003 6.81977 23.209 5.18557 20.8792 4.22055C18.5495 3.25553 15.9859 3.00304 13.5126 3.495C11.0394 3.98696 8.76752 5.20128 6.9844 6.9844C5.20128 8.76752 3.98696 11.0394 3.495 13.5126C3.00304 15.9859 3.25553 18.5495 4.22055 20.8792C5.18557 23.209 6.81977 25.2003 8.91649 26.6013C11.0132 28.0022 13.4783 28.75 16 28.75C19.3805 28.7467 22.6216 27.4023 25.012 25.012C27.4023 22.6216 28.7467 19.3805 28.75 16ZM16.75 27.225V18.75H20C20.1989 18.75 20.3897 18.671 20.5303 18.5303C20.671 18.3897 20.75 18.1989 20.75 18C20.75 17.8011 20.671 17.6103 20.5303 17.4697C20.3897 17.329 20.1989 17.25 20 17.25H16.75V14C16.7533 13.4043 16.9914 12.8339 17.4126 12.4127C17.8339 11.9914 18.4043 11.7533 19 11.75H21C21.1989 11.75 21.3897 11.671 21.5303 11.5303C21.671 11.3897 21.75 11.1989 21.75 11C21.75 10.8011 21.671 10.6103 21.5303 10.4697C21.3897 10.329 21.1989 10.25 21 10.25H19C18.0065 10.2533 17.0546 10.6495 16.352 11.352C15.6495 12.0546 15.2533 13.0065 15.25 14V17.25H12C11.8011 17.25 11.6103 17.329 11.4697 17.4697C11.329 17.6103 11.25 17.8011 11.25 18C11.25 18.1989 11.329 18.3897 11.4697 18.5303C11.6103 18.671 11.8011 18.75 12 18.75H15.25V27.225C12.3378 27.0304 9.61518 25.7116 7.65714 23.5472C5.69911 21.3827 4.65893 18.5419 4.75627 15.6248C4.85362 12.7077 6.08087 9.94266 8.17885 7.91352C10.2768 5.88439 13.0813 4.75004 16 4.75004C18.9187 4.75004 21.7232 5.88439 23.8212 7.91352C25.9192 9.94266 27.1464 12.7077 27.2438 15.6248C27.3411 18.5419 26.3009 21.3827 24.3429 23.5472C22.3848 25.7116 19.6622 27.0304 16.75 27.225Z" fill="#9A9A9A"/>
</svg>
