<svg width="32" height="32" viewBox="0 0 32 32" fill="none" xmlns="http://www.w3.org/2000/svg">
<path d="M16 10.25C14.8627 10.25 13.751 10.5872 12.8055 11.2191C11.8599 11.8509 11.1229 12.7489 10.6877 13.7996C10.2525 14.8503 10.1386 16.0064 10.3605 17.1218C10.5823 18.2372 11.13 19.2617 11.9341 20.0659C12.7383 20.87 13.7628 21.4177 14.8782 21.6395C15.9936 21.8614 17.1497 21.7475 18.2004 21.3123C19.2511 20.8771 20.1491 20.1401 20.7809 19.1945C21.4127 18.249 21.75 17.1373 21.75 16C21.75 14.475 21.1442 13.0125 20.0658 11.9341C18.9875 10.8558 17.525 10.25 16 10.25ZM16 20.25C15.1594 20.25 14.3377 20.0008 13.6388 19.5338C12.9399 19.0668 12.3952 18.403 12.0735 17.6264C11.7518 16.8498 11.6677 15.9953 11.8316 15.1709C11.9956 14.3465 12.4004 13.5892 12.9948 12.9948C13.5891 12.4004 14.3464 11.9957 15.1708 11.8317C15.9953 11.6677 16.8498 11.7519 17.6264 12.0735C18.403 12.3952 19.0667 12.9399 19.5337 13.6388C20.0007 14.3377 20.25 15.1594 20.25 16C20.2467 17.1262 19.7979 18.2053 19.0015 19.0016C18.2052 19.7979 17.1261 20.2467 16 20.25ZM21.5 3.75001H10.5C8.70977 3.75001 6.99288 4.46117 5.72701 5.72704C4.46114 6.99291 3.74998 8.7098 3.74998 10.5V21.5C3.74998 23.2902 4.46114 25.0071 5.72701 26.273C6.99288 27.5389 8.70977 28.25 10.5 28.25H21.5C23.2902 28.25 25.0071 27.5389 26.2729 26.273C27.5388 25.0071 28.25 23.2902 28.25 21.5V10.5C28.25 8.7098 27.5388 6.99291 26.2729 5.72704C25.0071 4.46117 23.2902 3.75001 21.5 3.75001ZM26.75 21.5C26.75 22.8924 26.1969 24.2278 25.2123 25.2123C24.2277 26.1969 22.8924 26.75 21.5 26.75H10.5C9.10759 26.75 7.77224 26.1969 6.78767 25.2123C5.80311 24.2278 5.24998 22.8924 5.24998 21.5V10.5C5.24998 9.10763 5.80311 7.77227 6.78767 6.7877C7.77224 5.80314 9.10759 5.25001 10.5 5.25001H21.5C22.8924 5.25001 24.2277 5.80314 25.2123 6.7877C26.1969 7.77227 26.75 9.10763 26.75 10.5V21.5ZM23.75 9.50001C23.75 9.74724 23.6767 9.98891 23.5393 10.1945C23.402 10.4 23.2067 10.5603 22.9783 10.6549C22.7499 10.7495 22.4986 10.7742 22.2561 10.726C22.0136 10.6778 21.7909 10.5587 21.6161 10.3839C21.4413 10.2091 21.3222 9.98635 21.274 9.74388C21.2258 9.5014 21.2505 9.25007 21.3451 9.02166C21.4397 8.79325 21.6 8.59803 21.8055 8.46068C22.0111 8.32332 22.2528 8.25001 22.5 8.25001C22.8315 8.25001 23.1494 8.38171 23.3839 8.61613C23.6183 8.85055 23.75 9.16849 23.75 9.50001Z" fill="#9A9A9A"/>
</svg>
