<svg width="32" height="32" viewBox="0 0 32 32" fill="none" xmlns="http://www.w3.org/2000/svg">
<path d="M30.6875 8.71245C30.631 8.57635 30.5356 8.4599 30.4134 8.37764C30.2911 8.29539 30.1473 8.25098 30 8.24995H26.05C25.5617 7.35323 24.8435 6.60269 23.9692 6.07544C23.0948 5.5482 22.0959 5.26328 21.075 5.24995C19.541 5.24329 18.0669 5.84456 16.9752 6.92219C15.8835 7.99982 15.2632 9.46604 15.25 11V12.0875C9.94995 10.825 5.57495 6.51245 5.52495 6.47495C5.42859 6.37982 5.30826 6.31256 5.17675 6.28029C5.04524 6.24803 4.90744 6.25198 4.77799 6.29171C4.64854 6.33144 4.53226 6.40548 4.44149 6.50597C4.35073 6.60646 4.28886 6.72964 4.26245 6.86245C3.17495 12.8125 4.96245 16.7875 6.64995 19.075C7.54496 20.2998 8.64438 21.3611 9.89995 22.2125C7.96245 24.5625 4.77495 25.7875 4.73745 25.8C4.63096 25.8392 4.53494 25.9024 4.45689 25.9848C4.37884 26.0672 4.32086 26.1665 4.28745 26.275C4.25198 26.3808 4.24143 26.4934 4.2566 26.6039C4.27178 26.7145 4.31228 26.8201 4.37495 26.9125C4.49995 27.1 5.72495 28.75 9.99995 28.75C18.7125 28.75 26 22.0125 26.7 13.3625L30.525 9.52495C30.6334 9.42337 30.7073 9.29044 30.7365 9.14475C30.7656 8.99907 30.7485 8.84792 30.6875 8.71245ZM25.4375 12.5C25.3074 12.6297 25.2315 12.8039 25.225 12.9875C24.7125 20.9875 18.025 27.25 9.99995 27.25C8.26245 27.25 7.14995 26.95 6.48745 26.65C7.89995 25.9375 10.2125 24.5375 11.625 22.4125C11.6812 22.3244 11.7191 22.2258 11.7363 22.1227C11.7535 22.0196 11.7496 21.914 11.725 21.8125C11.6983 21.7085 11.65 21.6113 11.5832 21.5273C11.5165 21.4433 11.4327 21.3744 11.3375 21.325C11.3125 21.325 9.43745 20.35 7.81245 18.125C5.87495 15.475 5.11245 12.2375 5.53745 8.49995C7.36245 10.05 11.3 12.975 15.875 13.7375C15.9826 13.7579 16.0935 13.7541 16.1995 13.7263C16.3056 13.6985 16.4041 13.6475 16.4879 13.5768C16.5717 13.5062 16.6387 13.4178 16.684 13.318C16.7294 13.2182 16.7519 13.1095 16.75 13V11C16.7599 9.86718 17.2177 8.78436 18.0234 7.98804C18.829 7.19171 19.9171 6.74661 21.05 6.74995C21.8685 6.76177 22.6664 7.00835 23.3489 7.46039C24.0314 7.91242 24.5697 8.55091 24.9 9.29995C24.957 9.4347 25.0528 9.54944 25.1752 9.62957C25.2977 9.7097 25.4411 9.75161 25.5875 9.74995H28.1875L25.4375 12.5Z" fill="#9A9A9A"/>
</svg>
